<svg width="105" height="108" viewBox="0 0 105 108" fill="none" xmlns="http://www.w3.org/2000/svg">
<g filter="url(#filter0_d_1_749)">
<path d="M4 0H100.242V100H4V0Z" fill="#F7DF1E"/>
</g>
<path d="M29.3058 83.5671L36.6709 78.9358C38.0917 81.5534 39.3843 83.7682 42.4846 83.7682C45.4565 83.7682 47.3302 82.5602 47.3302 77.8618V45.9095H56.3745V77.9947C56.3745 87.728 50.8835 92.1583 42.8724 92.1583C35.6373 92.1583 31.4374 88.2649 29.3056 83.5663" fill="black"/>
<path d="M61.2868 82.5603L68.651 78.13C70.5896 81.4195 73.1091 83.8359 77.5665 83.8359C81.314 83.8359 83.7037 81.889 83.7037 79.204C83.7037 75.9819 81.2489 74.8406 77.1142 72.9617L74.8537 71.9541C68.3284 69.0682 63.9998 65.4435 63.9998 57.7909C63.9998 50.7427 69.168 45.3724 77.2437 45.3724C82.9935 45.3724 87.1281 47.4535 90.0995 52.8908L83.0577 57.5894C81.5071 54.7032 79.8279 53.5622 77.2439 53.5622C74.5951 53.5622 72.9153 55.3075 72.9153 57.5894C72.9153 60.4087 74.5951 61.5502 78.4709 63.2955L80.7318 64.3024C88.4197 67.726 92.7483 71.2162 92.7483 79.0697C92.7483 87.5281 86.3527 92.1593 77.7605 92.1593C69.3621 92.1593 63.9353 87.9978 61.287 82.5603" fill="black"/>
<defs>
<filter id="filter0_d_1_749" x="0" y="0" width="104.242" height="108" filterUnits="userSpaceOnUse" color-interpolation-filters="sRGB">
<feFlood flood-opacity="0" result="BackgroundImageFix"/>
<feColorMatrix in="SourceAlpha" type="matrix" values="0 0 0 0 0 0 0 0 0 0 0 0 0 0 0 0 0 0 127 0" result="hardAlpha"/>
<feOffset dy="4"/>
<feGaussianBlur stdDeviation="2"/>
<feComposite in2="hardAlpha" operator="out"/>
<feColorMatrix type="matrix" values="0 0 0 0 0 0 0 0 0 0 0 0 0 0 0 0 0 0 0.25 0"/>
<feBlend mode="normal" in2="BackgroundImageFix" result="effect1_dropShadow_1_749"/>
<feBlend mode="normal" in="SourceGraphic" in2="effect1_dropShadow_1_749" result="shape"/>
</filter>
</defs>
</svg>
